<svg width="100%" height="100%" viewBox="0 0 48 48" fill="none" xmlns="http://www.w3.org/2000/svg">
  <path fill-rule="evenodd" clip-rule="evenodd" d="M20.9394 25.6463L9.69211 21.8972L9.6921 21.8972L9.69209 21.8972C7.33889 21.1128 6.16229 20.7206 6.16229 19.9999C6.16229 19.2791 7.3389 18.8869 9.69212 18.1025L36.2053 9.26476C37.8611 8.71283 38.689 8.43687 39.126 8.87388C39.563 9.3109 39.287 10.1388 38.7351 11.7946L29.8974 38.3078C29.113 40.661 28.7208 41.8376 28 41.8376C27.2793 41.8376 26.8871 40.661 26.1027 38.3078L26.1026 38.3078L22.3536 27.0605L30.7071 18.707C31.0976 18.3164 31.0976 17.6833 30.7071 17.2927C30.3166 16.9022 29.6834 16.9022 29.2929 17.2927L20.9394 25.6463Z" fill="white"/>
</svg>
