<svg viewBox="0 0 40 45" fill="none" xmlns="http://www.w3.org/2000/svg">
  <path
    d="M9.6575 24.1278C7.40595 24.1278 5.58308 26.18 5.58308 28.713C5.58308 31.246 7.40722 33.2981 9.6575 33.2981C11.9065 33.2981 13.7319 31.246 13.7319 28.713C13.7319 26.18 11.9065 24.1278 9.6575 24.1278ZM9.6575 30.0983C8.98076 30.0983 8.42614 29.4772 8.42614 28.7144C8.42614 27.9517 8.98076 27.3306 9.6575 27.3306C10.333 27.3306 10.8863 27.9517 10.8863 28.7144C10.8863 29.4772 10.3342 30.0983 9.6575 30.0983Z"
    fill="#319fff"
  />
  <path
    d="M39.3258 24.9564L38.6592 18.8572C38.5282 17.6866 37.6187 16.828 36.5692 16.8923L35.1089 16.9839L30.5753 12.3888C30.1377 11.9466 29.5742 11.7033 28.9865 11.7033L19.7755 11.7019C17.7084 11.7019 15.7036 12.4961 14.0919 13.9529L8.95278 18.5982L2.04166 20.5416C1.15376 20.7906 0.53045 21.6893 0.53045 22.7182V24.9593C0.237876 24.9579 0 25.224 0 25.5532V28.5169C0 28.9391 0.304023 29.2811 0.679281 29.2811H4.5807C4.56416 29.0908 4.52981 28.909 4.52981 28.7144C4.52981 25.5274 6.82461 22.9486 9.65623 22.9486C12.4878 22.9486 14.7814 25.5274 14.7814 28.7144C14.7814 28.9105 14.7457 29.0922 14.7292 29.2811H25.5328C25.5176 29.0908 25.4832 28.909 25.4832 28.7144C25.4832 25.5274 27.778 22.9486 30.6084 22.9486C33.4412 22.9486 35.7322 25.5274 35.7322 28.7144C35.7322 28.9105 35.6992 29.0922 35.6813 29.2811H39.3207C39.696 29.2811 39.9987 28.9391 39.9987 28.5169V25.7221C40.0051 25.3013 39.7011 24.9564 39.3258 24.9564ZM25.655 17.4619L12.8046 18.1932L15.2647 15.9679C16.6017 14.7586 18.263 14.1003 19.979 14.1003H25.655V17.4619ZM27.7895 17.3403V14.1018H28.6252C28.9152 14.1018 29.1938 14.222 29.4088 14.4409L32.0318 17.097L27.7895 17.3403Z"
    fill="#319fff"
  />
  <path
    d="M30.6109 24.1278C28.3594 24.1278 26.5365 26.18 26.5365 28.713C26.5365 31.246 28.3606 33.2981 30.6109 33.2981C32.8612 33.2981 34.6853 31.246 34.6853 28.713C34.6853 26.18 32.8612 24.1278 30.6109 24.1278ZM30.6109 30.0983C29.9329 30.0983 29.3808 29.4772 29.3808 28.7144C29.3808 27.9517 29.9329 27.3306 30.6109 27.3306C31.2864 27.3306 31.841 27.9517 31.841 28.7144C31.841 29.4772 31.2876 30.0983 30.6109 30.0983Z"
    fill="#319fff"
  />
</svg>