<svg viewBox="0 0 32 32" fill="none" xmlns="http://www.w3.org/2000/svg">
<path fill-rule="evenodd" clip-rule="evenodd" d="M13.6059 16.9798L8.35868 15.2307L8.35868 15.2307C6.00546 14.4463 4.82886 14.0541 4.82886 13.3333C4.82886 12.6126 6.00546 12.2204 8.35868 11.436L8.35868 11.436L22.8718 6.59824C24.5276 6.04631 25.3555 5.77035 25.7925 6.20736C26.2296 6.64438 25.9536 7.47228 25.4017 9.12807L20.5639 23.6412C19.7795 25.9944 19.3873 27.1711 18.6666 27.1711C17.9458 27.1711 17.5536 25.9944 16.7692 23.6412L15.0201 18.394L20.707 12.7071C21.0975 12.3166 21.0975 11.6834 20.707 11.2929C20.3165 10.9024 19.6833 10.9024 19.2928 11.2929L13.6059 16.9798Z" fill="#319FFF"/>
</svg>
